<svg xmlns="http://www.w3.org/2000/svg" xmlns:xlink="http://www.w3.org/1999/xlink" width="37.047" height="41.814" viewBox="0 0 37.047 41.814">
  <defs>
    <linearGradient id="linear-gradient" x1="0.5" x2="0.63" y2="1" gradientUnits="objectBoundingBox">
      <stop offset="0" stop-color="#ddab47"/>
      <stop offset="0.201" stop-color="#ffeeb2"/>
      <stop offset="0.411" stop-color="#e6b641"/>
      <stop offset="0.64" stop-color="#976620"/>
      <stop offset="1" stop-color="#ffce53"/>
    </linearGradient>
    <filter id="lobby_player_id_icon" x="0" y="0" width="37.047" height="41.814" filterUnits="userSpaceOnUse">
      <feOffset dx="3" dy="5" input="SourceAlpha"/>
      <feGaussianBlur stdDeviation="1.5" result="blur"/>
      <feFlood flood-opacity="0.231"/>
      <feComposite operator="in" in2="blur"/>
      <feComposite in="SourceGraphic"/>
    </filter>
  </defs>
  <g transform="matrix(1, 0, 0, 1, 0, 0)" filter="url(#lobby_player_id_icon)">
    <g id="lobby_player_id_icon-2" data-name="lobby_player_id_icon" transform="translate(3.64 2)" fill="url(#linear-gradient)">
      <path d="M0,28.314s.867-12.43,11.431-12.43,12.192,12.43,12.192,12.43ZM4.193,6.986A7.248,7.248,0,0,1,11.677,0a7.248,7.248,0,0,1,7.485,6.986,7.248,7.248,0,0,1-7.485,6.986A7.248,7.248,0,0,1,4.193,6.986Z" stroke="none"/>
      <path d="M 23.62318420410156 28.31352043151855 C 23.62318420410156 28.31352043151855 21.99433326721191 15.88306999206543 11.43076419830322 15.88306999206543 C 0.8667539954185486 15.88306999206543 4.009399617643794e-06 28.31352043151855 4.009399617643794e-06 28.31352043151855 L 23.62318420410156 28.31352043151855 M 11.67731380462646 13.97173023223877 C 15.81121444702148 13.97173023223877 19.162353515625 10.84425067901611 19.162353515625 6.986090183258057 C 19.162353515625 3.127480268478394 15.81121444702148 2.157592717821899e-07 11.67731380462646 2.157592717821899e-07 C 7.543863773345947 2.157592717821899e-07 4.192734241485596 3.127480268478394 4.192734241485596 6.986090183258057 C 4.192734241485596 10.84425067901611 7.543863773345947 13.97173023223877 11.67731380462646 13.97173023223877 M 25.90235328674316 30.31352043151855 L -2.144305944442749 30.31352043151855 L -1.995156049728394 28.17440032958984 C -1.985185980796814 28.03142929077148 -1.73154604434967 24.63364028930664 -0.03879598900675774 21.21154022216797 C 0.9951940178871155 19.12121963500977 2.352164030075073 17.4420108795166 3.994424104690552 16.22054100036621 C 4.856369972229004 15.57945251464844 5.789551734924316 15.0689640045166 6.78892707824707 14.69066715240479 C 6.154435634613037 14.32814311981201 5.560825824737549 13.89227104187012 5.0203537940979 13.38784027099609 C 3.19693398475647 11.68601989746094 2.192734003067017 9.412500381469727 2.192734003067017 6.986090183258057 C 2.192734003067017 4.559500217437744 3.196923971176147 2.285850286483765 5.020324230194092 0.5839701890945435 C 6.805603981018066 -1.082329750061035 9.169763565063477 -1.999999761581421 11.67731380462646 -1.999999761581421 C 14.18503379821777 -1.999999761581421 16.5493335723877 -1.082339763641357 18.33466339111328 0.5839402079582214 C 20.15813446044922 2.285810232162476 21.162353515625 4.559470176696777 21.162353515625 6.986090183258057 C 21.162353515625 9.412540435791016 20.15811347961426 11.68607044219971 18.33463478088379 13.3878698348999 C 17.74195098876953 13.94100856781006 17.08553123474121 14.41161346435547 16.38117980957031 14.79357051849365 C 17.2876033782959 15.15456390380859 18.14576148986816 15.62233066558838 18.9516544342041 16.19561004638672 C 20.64574432373047 17.40072059631348 22.08732414245605 19.0597095489502 23.2363338470459 21.12648963928223 C 25.12768363952637 24.52853965759277 25.58758354187012 27.91132926940918 25.60623359680176 28.05367088317871 L 25.90235328674316 30.31352043151855 Z" stroke="none" fill="rgba(255,181,54,0.25)"/>
    </g>
  </g>
</svg>
